<?xml version="1.0" encoding="utf-8"?>
<svg viewBox="0 0 512 640" x="0px" y="0px" xmlns="http://www.w3.org/2000/svg">
  <title>3. chinese, food, Box, dumpling, steamed, wonton</title>
  <path d="M217.248,152.686l.03,16a55.721,55.721,0,0,0,16.244-2.831c11.982-3.994,20.147-11.6,23.614-22l-15.179-5.06C237.431,152.372,217.449,152.684,217.248,152.686Z"/>
  <path d="M282.951,138.794l-15.179,5.06c8.183,24.549,38.568,24.832,39.858,24.832l.03-16C307.459,152.684,287.477,152.372,282.951,138.794Z"/>
  <path d="M130.262,120.542c11.982-3.994,20.147-11.6,23.614-22L138.7,93.481c-4.526,13.577-24.508,13.89-24.709,13.891l.03,16A55.721,55.721,0,0,0,130.262,120.542Z"/>
  <path d="M204.37,123.373l.03-16c-.2,0-20.184-.314-24.709-13.891l-15.179,5.06C172.695,123.09,203.081,123.373,204.37,123.373Z"/>
  <path d="M373.223,92.854,358.073,98c8.2,24.161,38.556,24.438,39.844,24.438v-16C397.716,106.436,377.708,106.066,373.223,92.854Z"/>
  <path d="M307.535,106.436l.029,16c1.288,0,31.642-.278,39.844-24.438l-15.15-5.144C327.75,106.131,307.737,106.435,307.535,106.436Z"/>
  <path d="M77.345,446.569C125.2,468.18,188.646,480.082,256,480.082s130.8-11.9,178.655-33.513C484.532,424.044,512,393.329,512,360.082V151.918c0-33.247-27.468-63.962-77.345-86.487C386.8,43.82,323.354,31.918,256,31.918S125.2,43.82,77.345,65.431C27.468,87.956,0,118.671,0,151.918V360.082C0,393.329,27.468,424.044,77.345,446.569ZM428.07,256.156A291.872,291.872,0,0,1,400,267.05V223.986c20.225-.441,36.635-2.731,48-12.393v34.33A215.052,215.052,0,0,1,428.07,256.156ZM98.273,113.735Q116.334,99.077,143.8,83.372c7.2-4.113,12.134-7.309,15.392-9.586,3.258,2.277,8.194,5.473,15.392,9.586,15.463,8.836,37.147,22,54.214,37.787-13.656,8.329-30.232,19.37-44.5,32.318-20.308,18.427-31.353,36.737-32.906,54.5-1.985.012-3.962.026-5.915.041-31.67.246-59.073.5-71.959-12.383C61.15,183.265,64,163.331,64,163.331c.877-15.207,12.348-31.792,34.239-49.568l.039-.015Zm315.452.016C436.5,132.236,448,149.434,448,165.129c0,16.21-2.99,27.058-9.142,33.163-10.184,10.106-31,9.945-59.814,9.731-1.812-.014-3.66-.027-5.528-.039-1.55-17.763-12.6-36.077-32.907-54.507-17.974-16.309-39.62-29.609-54.458-38.247C298.325,104.3,311.91,97.062,325.1,90.036c4.269-2.273,8.3-4.421,12.245-6.673,7.2-4.111,12.136-7.3,15.394-9.58,3.258,2.275,8.195,5.47,15.395,9.58Q395.522,99,413.574,113.627l-.022.057ZM276.171,256.016c-4.489-.035-9.067-.071-13.718-.071s-9.229.036-13.718.071c-31.525.246-58.709.412-71.743-12.428-12.48-12.295-9.8-29.979-9.8-31.272,0-24.527,26.889-52.6,79.92-83.437,7.159-4.163,12.082-7.4,15.339-9.717,3.258,2.314,8.18,5.554,15.34,9.717,53.031,30.837,79.92,58.91,79.92,83.437,0,14.5-3.205,24.73-9.8,31.272C334.928,256.474,307.7,256.264,276.171,256.016ZM288,93.4V88.571q3.288.194,6.559.433Q291.273,91.1,288,93.4Zm-16,12.919c-2.891-2.038-4.053-3.076-4.054-3.075a7.791,7.791,0,0,0-10.928-.054c-.039.035-3.62,3.24-13.934,9.479-3.521-3.445-7.243-6.767-11.085-9.961V88.158q11.933-.526,24-.527,8.02,0,16,.234ZM216,90.5c-.592-.417-1.184-.84-1.776-1.25.593-.046,1.182-.1,1.776-.145ZM48.333,159.082a52.608,52.608,0,0,0-.4,6.13c0,1.233.065,70.108.065,70.108-19.243-14.564-30.375-30.921-31.821-47.4,1.668-19.444,16.389-38.3,41.922-54.449Q49.949,146.405,48.333,159.082ZM64,208.626c8.354,7.415,19.266,11.318,32,13.344v39.276q-6.191-2.445-12.07-5.09A215.052,215.052,0,0,1,64,245.923ZM112,223.6c6.677.377,13.7.48,20.986.48,4.123,0,8.335-.032,12.614-.065q3.112-.024,6.284-.044c.038.311.074.625.116.933v52.919a374.313,374.313,0,0,1-40-10.774Zm56,33.43c11.793,10.147,28.438,13.544,48,14.6v15.152c-16.5-1.218-32.573-3.184-48-5.87Zm64,15.035c5.469.036,11.1-.006,16.861-.051,7.562-.059,15.469-.065,23.139-.023v16.021q-7.954.23-16,.238-12.1,0-24-.522Zm56,.013.671,0c14.342,0,27.647-.4,39.329-2.553v13.88c-12.987,1.8-26.358,3.107-40,3.906Zm56-7.158a47.491,47.491,0,0,0,15.184-9.975c7.651-7.591,12.21-17.794,13.838-30.964q3,.018,5.9.041c1.715.013,3.4.025,5.076.035v47.872a409.957,409.957,0,0,1-40,8.985ZM464,160.082h-.269q-1.378-13.154-9.878-26.643c25.563,16.155,40.3,35.02,41.969,54.479-1.446,16.481-12.578,32.838-31.821,47.4Zm31.9-10.932c-15.03-19.037-40.205-36.025-73.817-49.3-16.025-12.77-33.5-23.236-46.015-30.381C363.968,62.56,359.155,58.692,358.327,58c25.635,5.35,49.224,12.746,69.743,22.013C469.72,98.823,494.225,123.88,495.9,149.15ZM349.726,56.292a8.155,8.155,0,0,0-2.367,1.532c-.043.039-4.512,3.975-17.946,11.646-3.343,1.909-6.851,3.79-10.529,5.75a552.677,552.677,0,0,0-126.409.075c-3.5-2.094-6.852-4.043-9.95-5.814A212.559,212.559,0,0,1,162.256,56.3,511.588,511.588,0,0,1,256,47.918,511.6,511.6,0,0,1,349.726,56.292ZM83.93,80.013c20.495-9.256,44.051-16.645,69.651-21.994-1.058.878-5.944,4.734-17.717,11.461C123.355,76.628,105.892,87.1,89.875,99.866,56.286,113.138,31.124,130.121,16.1,149.151,17.774,123.881,42.279,98.823,83.93,80.013ZM16,226.773c13.019,16.523,33.743,31.5,61.345,43.965C125.2,292.35,188.646,304.251,256,304.251s130.8-11.9,178.655-33.513C444.76,266.175,464,254.914,464,254.914c13.383-8.667,24.1-18.12,32-28.14v21.145c0,26.2-24.76,52.409-67.93,71.9-45.829,20.7-106.937,32.1-172.07,32.1s-126.241-11.4-172.07-32.1c-43.17-19.5-67.93-45.7-67.93-71.9Zm0,63.667c13.019,16.523,33.743,31.5,61.345,43.965C125.2,356.016,188.646,367.918,256,367.918s130.8-11.9,178.655-33.513c27.6-12.465,48.326-27.442,61.345-43.965v69.642c0,26.2-24.76,52.409-67.93,71.9-45.829,20.7-106.937,32.1-172.07,32.1s-126.241-11.4-172.07-32.1c-43.17-19.5-67.93-45.7-67.93-71.9Z"/>
</svg>